<svg width="40" height="40" viewBox="0 0 40 40" fill="none" xmlns="http://www.w3.org/2000/svg">
<path d="M31.6663 11.6667H29.9997V10C29.9997 8.67392 29.4729 7.40215 28.5352 6.46447C27.5975 5.52678 26.3258 5 24.9997 5H8.33301C7.00693 5 5.73516 5.52678 4.79747 6.46447C3.85979 7.40215 3.33301 8.67392 3.33301 10V30C3.33301 31.3261 3.85979 32.5979 4.79747 33.5355C5.73516 34.4732 7.00693 35 8.33301 35H31.6663C32.9924 35 34.2642 34.4732 35.2019 33.5355C36.1396 32.5979 36.6663 31.3261 36.6663 30V16.6667C36.6663 15.3406 36.1396 14.0688 35.2019 13.1311C34.2642 12.1935 32.9924 11.6667 31.6663 11.6667ZM8.33301 8.33333H24.9997C25.4417 8.33333 25.8656 8.50893 26.1782 8.82149C26.4907 9.13405 26.6663 9.55797 26.6663 10V11.6667H8.33301C7.89098 11.6667 7.46706 11.4911 7.1545 11.1785C6.84194 10.866 6.66634 10.442 6.66634 10C6.66634 9.55797 6.84194 9.13405 7.1545 8.82149C7.46706 8.50893 7.89098 8.33333 8.33301 8.33333ZM33.333 25H31.6663C31.2243 25 30.8004 24.8244 30.4878 24.5118C30.1753 24.1993 29.9997 23.7754 29.9997 23.3333C29.9997 22.8913 30.1753 22.4674 30.4878 22.1548C30.8004 21.8423 31.2243 21.6667 31.6663 21.6667H33.333V25ZM33.333 18.3333H31.6663C30.3403 18.3333 29.0685 18.8601 28.1308 19.7978C27.1931 20.7355 26.6663 22.0073 26.6663 23.3333C26.6663 24.6594 27.1931 25.9312 28.1308 26.8689C29.0685 27.8065 30.3403 28.3333 31.6663 28.3333H33.333V30C33.333 30.442 33.1574 30.866 32.8449 31.1785C32.5323 31.4911 32.1084 31.6667 31.6663 31.6667H8.33301C7.89098 31.6667 7.46706 31.4911 7.1545 31.1785C6.84194 30.866 6.66634 30.442 6.66634 30V14.7167C7.20179 14.905 7.7654 15.0008 8.33301 15H31.6663C32.1084 15 32.5323 15.1756 32.8449 15.4882C33.1574 15.8007 33.333 16.2246 33.333 16.6667V18.3333Z" fill="white"/>
</svg>
