<svg width="40" height="40" viewBox="0 0 24 24" fill="none" xmlns="http://www.w3.org/2000/svg">
<path d="M11.933 12.8C12.0572 12.7069 12.158 12.5861 12.2274 12.4472C12.2969 12.3084 12.333 12.1552 12.333 12C12.333 11.8448 12.2969 11.6916 12.2274 11.5528C12.158 11.4139 12.0572 11.2931 11.933 11.2L6.6 7.2C6.45143 7.08857 6.27477 7.02072 6.08981 7.00404C5.90484 6.98736 5.71889 7.02252 5.55279 7.10557C5.38668 7.18863 5.24698 7.31629 5.14935 7.47427C5.05171 7.63225 5 7.81429 5 8V16C5 16.1857 5.05171 16.3678 5.14935 16.5257C5.24698 16.6837 5.38668 16.8114 5.55279 16.8944C5.71889 16.9775 5.90484 17.0126 6.08981 16.996C6.27477 16.9793 6.45143 16.9114 6.6 16.8L11.933 12.8ZM19.933 12.8C20.0572 12.7069 20.158 12.5861 20.2274 12.4472C20.2969 12.3084 20.333 12.1552 20.333 12C20.333 11.8448 20.2969 11.6916 20.2274 11.5528C20.158 11.4139 20.0572 11.2931 19.933 11.2L14.6 7.2C14.4514 7.08857 14.2748 7.02072 14.0898 7.00404C13.9048 6.98736 13.7189 7.02252 13.5528 7.10557C13.3867 7.18863 13.247 7.31629 13.1493 7.47427C13.0517 7.63225 13 7.81429 13 8V16C13 16.1857 13.0517 16.3678 13.1493 16.5257C13.247 16.6837 13.3867 16.8114 13.5528 16.8944C13.7189 16.9775 13.9048 17.0126 14.0898 16.996C14.2748 16.9793 14.4514 16.9114 14.6 16.8L19.933 12.8Z" stroke="white" stroke-width="2" stroke-linecap="round" stroke-linejoin="round"/>
</svg>
