<svg width="40" height="40" viewBox="0 0 24 24" fill="none" xmlns="http://www.w3.org/2000/svg">
<path d="M7 10C6.46957 10 5.96086 10.2107 5.58579 10.5858C5.21071 10.9609 5 11.4696 5 12C5 12.5304 5.21071 13.0391 5.58579 13.4142C5.96086 13.7893 6.46957 14 7 14C7.53043 14 8.03914 13.7893 8.41421 13.4142C8.78929 13.0391 9 12.5304 9 12C9 11.4696 8.78929 10.9609 8.41421 10.5858C8.03914 10.2107 7.53043 10 7 10Z" fill="white"/>
<path fill-rule="evenodd" clip-rule="evenodd" d="M6.99975 6.25C5.98435 6.25004 4.98707 6.51897 4.10931 7.02944C3.23155 7.53992 2.50463 8.27372 2.00244 9.15625C1.50026 10.0388 1.24073 11.0385 1.25025 12.0539C1.25977 13.0693 1.53799 14.064 2.05663 14.9369C2.57527 15.8099 3.31583 16.5299 4.203 17.0239C5.09018 17.5178 6.09232 17.768 7.10755 17.749C8.12277 17.73 9.11486 17.4425 9.98294 16.9157C10.851 16.389 11.5641 15.6417 12.0498 14.75H15.2498V17C15.2498 17.414 15.5858 17.75 15.9998 17.75H19.4998C19.6987 17.75 19.8894 17.671 20.0301 17.5303C20.1707 17.3897 20.2498 17.1989 20.2498 17V14.75H21.9998C22.1987 14.75 22.3894 14.671 22.5301 14.5303C22.6707 14.3897 22.7498 14.1989 22.7498 14V11C22.7498 10.5359 22.5654 10.0908 22.2372 9.76256C21.909 9.43437 21.4639 9.25 20.9998 9.25H12.0498C11.5555 8.34213 10.8255 7.58432 9.93681 7.05637C9.04809 6.52841 8.03346 6.24985 6.99975 6.25ZM2.74975 12C2.7488 11.0229 3.08458 10.0752 3.70056 9.3167C4.31653 8.55816 5.17508 8.03505 6.13162 7.83545C7.08816 7.63585 8.08426 7.77196 8.95219 8.22086C9.82012 8.66976 10.5069 9.40402 10.8968 10.3C10.9551 10.4337 11.0512 10.5475 11.1732 10.6274C11.2952 10.7073 11.4379 10.7499 11.5838 10.75H20.9998C21.0661 10.75 21.1296 10.7763 21.1765 10.8232C21.2234 10.8701 21.2498 10.9337 21.2498 11V13.25H19.4998C19.3008 13.25 19.1101 13.329 18.9694 13.4697C18.8288 13.6103 18.7498 13.8011 18.7498 14V16.25H16.7498V14C16.7498 13.8011 16.6707 13.6103 16.5301 13.4697C16.3894 13.329 16.1987 13.25 15.9998 13.25H11.5838C11.4379 13.2501 11.2952 13.2927 11.1732 13.3726C11.0512 13.4525 10.9551 13.5663 10.8968 13.7C10.5061 14.595 9.81917 15.3282 8.95152 15.7763C8.08386 16.2245 7.08838 16.3602 6.13242 16.1607C5.17646 15.9613 4.31833 15.4387 3.7023 14.681C3.08627 13.9233 2.7499 12.9765 2.74975 12Z" fill="white"/>
</svg>
