<svg width="40" height="40" viewBox="0 0 40 40" fill="none" xmlns="http://www.w3.org/2000/svg">
<path d="M15.0003 19.9998C15.8844 19.9998 16.7322 19.6486 17.3573 19.0235C17.9825 18.3984 18.3337 17.5506 18.3337 16.6665C18.3337 15.7824 17.9825 14.9346 17.3573 14.3095C16.7322 13.6844 15.8844 13.3332 15.0003 13.3332C14.1163 13.3332 13.2684 13.6844 12.6433 14.3095C12.0182 14.9346 11.667 15.7824 11.667 16.6665C11.667 17.5506 12.0182 18.3984 12.6433 19.0235C13.2684 19.6486 14.1163 19.9998 15.0003 19.9998ZM35.8337 10.8332L20.0003 1.6665L4.16699 10.8332V29.1665L20.0003 38.3332L35.8337 29.1665V10.8332ZM20.0003 5.51817L32.5003 12.7548V24.2215L24.897 19.6615L11.612 29.6248L7.50033 27.2448V12.7548L20.0003 5.51817ZM20.0003 34.4815L14.747 31.4398L25.1037 23.6732L31.767 27.6698L20.0003 34.4815Z" fill="white"/>
</svg>
